<svg width="30" height="30" viewBox="0 0 30 30" fill="none" xmlns="http://www.w3.org/2000/svg">
<g opacity="0.5">
<path d="M22.5 0H7.5C3.375 0 0 3.375 0 7.5V22.5C0 26.625 3.375 30 7.5 30H22.5C26.625 30 30 26.625 30 22.5V7.5C30 3.375 26.625 0 22.5 0ZM28.6364 22.5C28.6364 25.875 25.875 28.6364 22.5 28.6364H7.5C4.125 28.6364 1.36364 25.875 1.36364 22.5V7.5C1.36364 4.125 4.125 1.36364 7.5 1.36364H22.5C25.875 1.36364 28.6364 4.125 28.6364 7.5V22.5Z" fill="white"/>
<path d="M12.809 24H16.3065V14.9171H18.7588L19 11.8894H16.3065C16.3065 11.8894 16.3065 10.7696 16.3065 10.1475C16.3065 9.4424 16.4271 9.15207 17.1106 9.15207C17.6332 9.15207 19 9.15207 19 9.15207V6C19 6 16.99 6 16.5879 6C14.0151 6 12.809 7.20276 12.809 9.4424C12.809 11.4332 12.809 11.8479 12.809 11.8479H11V14.9171H12.809V24Z" fill="white"/>
</g>
</svg>
