<svg width="30" height="30" viewBox="0 0 30 30" fill="none" xmlns="http://www.w3.org/2000/svg">
<g opacity="0.5">
<path d="M22.5 0H7.5C3.375 0 0 3.375 0 7.5V22.5C0 26.625 3.375 30 7.5 30H22.5C26.625 30 30 26.625 30 22.5V7.5C30 3.375 26.625 0 22.5 0ZM28.6364 22.5C28.6364 25.875 25.875 28.6364 22.5 28.6364H7.5C4.125 28.6364 1.36364 25.875 1.36364 22.5V7.5C1.36364 4.125 4.125 1.36364 7.5 1.36364H22.5C25.875 1.36364 28.6364 4.125 28.6364 7.5V22.5Z" fill="white"/>
<path d="M15 7.5C10.875 7.5 7.5 10.875 7.5 15C7.5 19.125 10.875 22.5 15 22.5C19.125 22.5 22.5 19.125 22.5 15C22.5 10.875 19.125 7.5 15 7.5ZM15 21.1364C11.625 21.1364 8.86364 18.375 8.86364 15C8.86364 11.625 11.625 8.86364 15 8.86364C18.375 8.86364 21.1364 11.625 21.1364 15C21.1364 18.375 18.375 21.1364 15 21.1364Z" fill="white"/>
<path d="M23.8636 3.75C22.5341 3.75 21.4773 4.80682 21.4773 6.13636C21.4773 7.46591 22.5341 8.52273 23.8636 8.52273C25.1932 8.52273 26.25 7.46591 26.25 6.13636C26.25 4.80682 25.1932 3.75 23.8636 3.75ZM23.8636 7.15909C23.2841 7.15909 22.8409 6.71591 22.8409 6.13636C22.8409 5.55682 23.2841 5.11364 23.8636 5.11364C24.4432 5.11364 24.8864 5.55682 24.8864 6.13636C24.8864 6.71591 24.4432 7.15909 23.8636 7.15909Z" fill="white"/>
</g>
</svg>
