<svg width="43" height="30" viewBox="0 0 43 30" fill="none" xmlns="http://www.w3.org/2000/svg">
<path d="M27.1769 13.8924C27.3836 13.9969 27.557 14.1555 27.6781 14.351C27.7992 14.5464 27.8632 14.771 27.8632 15C27.8632 15.229 27.7992 15.4536 27.6781 15.649C27.557 15.8445 27.3836 16.0031 27.1769 16.1076L23.2346 18.1111L18.9202 20.2951C18.7284 20.3918 18.5147 20.4384 18.2994 20.4305C18.0842 20.4227 17.8746 20.3606 17.6906 20.2502C17.5065 20.1398 17.3542 19.9847 17.2482 19.7998C17.1421 19.6149 17.0858 19.4062 17.0846 19.1938V10.8062C17.0847 10.5932 17.1402 10.3838 17.2459 10.1981C17.3515 10.0123 17.5037 9.85639 17.6879 9.74524C17.8721 9.6341 18.0821 9.57146 18.2979 9.5633C18.5136 9.55515 18.7279 9.60176 18.9202 9.69867L27.1769 13.8924Z" stroke="white" stroke-opacity="0.5" stroke-width="1.3" stroke-linecap="round" stroke-linejoin="round"/>
<path d="M35.0615 1H7.93846C4.10646 1 1 4.06436 1 7.84444V22.1556C1 25.9356 4.10646 29 7.93846 29H35.0615C38.8935 29 42 25.9356 42 22.1556V7.84444C42 4.06436 38.8935 1 35.0615 1Z" stroke="white" stroke-opacity="0.5" stroke-width="1.3" stroke-linecap="round" stroke-linejoin="round"/>
</svg>
