<svg width="27" height="27" viewBox="0 0 27 27" fill="none" xmlns="http://www.w3.org/2000/svg">
<path d="M13.5 1C6.60976 1 1 6.60976 1 13.5C1 20.3902 6.60976 26 13.5 26C20.3902 26 26 20.3902 26 13.5C26 6.60976 20.3902 1 13.5 1ZM13.5 25.3902C6.94512 25.3902 1.60976 20.0549 1.60976 13.5C1.60976 6.94512 6.94512 1.60976 13.5 1.60976C20.0549 1.60976 25.3902 6.94512 25.3902 13.5C25.3902 20.0549 20.0549 25.3902 13.5 25.3902Z" fill="#CC2128"/>
<path d="M19.75 8.98781L11.3354 17.372L7.25 13.2866C7.12805 13.1646 6.94512 13.1646 6.82317 13.2866C6.70122 13.4085 6.70122 13.5915 6.82317 13.7134L11.122 18.0122C11.1829 18.0732 11.2744 18.1037 11.3354 18.1037C11.3963 18.1037 11.4878 18.0732 11.5488 18.0122L20.1768 9.38415C20.2988 9.2622 20.2988 9.07927 20.1768 8.95732C20.0549 8.83537 19.872 8.86585 19.75 8.98781Z" fill="#CC2128"/>
<path d="M13.5 1C6.60976 1 1 6.60976 1 13.5C1 20.3902 6.60976 26 13.5 26C20.3902 26 26 20.3902 26 13.5C26 6.60976 20.3902 1 13.5 1ZM13.5 25.3902C6.94512 25.3902 1.60976 20.0549 1.60976 13.5C1.60976 6.94512 6.94512 1.60976 13.5 1.60976C20.0549 1.60976 25.3902 6.94512 25.3902 13.5C25.3902 20.0549 20.0549 25.3902 13.5 25.3902Z" stroke="#CC2128" stroke-width="0.5"/>
<path d="M19.75 8.98781L11.3354 17.372L7.25 13.2866C7.12805 13.1646 6.94512 13.1646 6.82317 13.2866C6.70122 13.4085 6.70122 13.5915 6.82317 13.7134L11.122 18.0122C11.1829 18.0732 11.2744 18.1037 11.3354 18.1037C11.3963 18.1037 11.4878 18.0732 11.5488 18.0122L20.1768 9.38415C20.2988 9.2622 20.2988 9.07927 20.1768 8.95732C20.0549 8.83537 19.872 8.86585 19.75 8.98781Z" stroke="#CC2128" stroke-width="0.5"/>
</svg>
