<svg width="40" height="40" viewBox="0 0 40 40" fill="none" xmlns="http://www.w3.org/2000/svg">
<path d="M23.6893 20.0647L18.123 16.5696V23.5599L23.6893 20.0647ZM26.4078 20.9709L17.6052 26.4078C16.8285 26.9256 15.9223 26.4078 15.9223 25.5016V14.4984C15.9223 13.7217 16.8285 13.2039 17.6052 13.5922L26.4078 19.1586C27.055 19.5469 27.055 20.4531 26.4078 20.9709Z" fill="white"/>
<path d="M20.0647 0C31.068 0 40 8.93204 40 20.0647C40 31.068 31.068 40 20.0647 40C8.93204 40 0 31.068 0 20.0647C0 8.93204 8.93204 0 20.0647 0ZM20.0647 2.20065C10.2265 2.20065 2.20065 10.2265 2.20065 20.0647C2.20065 29.9029 10.2265 37.7994 20.0647 37.7994C29.9029 37.7994 37.7994 29.9029 37.7994 20.0647C37.7994 10.2265 29.9029 2.20065 20.0647 2.20065Z" fill="white"/>
</svg>
