<svg width="83" height="81" viewBox="0 0 83 81" fill="none" xmlns="http://www.w3.org/2000/svg">
<path d="M50.859 47.862L49.8984 48.8238L81.0393 80L82 79.0382L50.859 47.862Z" fill="white"/>
<path d="M26.8297 52.7179C41.0719 52.7179 52.6594 41.1173 52.6594 26.8589C52.6594 12.6006 41.0719 1 26.8297 1C12.5875 1 1 12.6006 1 26.8589C1 41.1186 12.5875 52.7179 26.8297 52.7179ZM26.8297 2.3615C40.3233 2.3615 51.3008 13.3514 51.3008 26.8603C51.3008 40.3692 40.3233 51.3591 26.8297 51.3591C13.3361 51.3591 2.3586 40.3692 2.3586 26.8603C2.3586 13.3514 13.3361 2.3615 26.8297 2.3615Z" fill="white"/>
<path d="M26.1504 36.9648H27.509V27.539H36.9241V26.1789H27.509V16.7545H26.1504V26.1789H16.7353V27.539H26.1504V36.9648Z" fill="white"/>
<path d="M50.859 47.862L49.8984 48.8238L81.0393 80L82 79.0382L50.859 47.862Z" stroke="white" stroke-width="0.5"/>
<path d="M26.8297 52.7179C41.0719 52.7179 52.6594 41.1173 52.6594 26.8589C52.6594 12.6006 41.0719 1 26.8297 1C12.5875 1 1 12.6006 1 26.8589C1 41.1186 12.5875 52.7179 26.8297 52.7179ZM26.8297 2.3615C40.3233 2.3615 51.3008 13.3514 51.3008 26.8603C51.3008 40.3692 40.3233 51.3591 26.8297 51.3591C13.3361 51.3591 2.3586 40.3692 2.3586 26.8603C2.3586 13.3514 13.3361 2.3615 26.8297 2.3615Z" stroke="white" stroke-width="0.5"/>
<path d="M26.1504 36.9648H27.509V27.539H36.9241V26.1789H27.509V16.7545H26.1504V26.1789H16.7353V27.539H26.1504V36.9648Z" stroke="white" stroke-width="0.5"/>
</svg>
